<!DOCTYPE svg PUBLIC "-//W3C//DTD SVG 1.1//EN" "http://www.w3.org/Graphics/SVG/1.1/DTD/svg11.dtd">
<!-- Uploaded to: SVG Repo, www.svgrepo.com, Transformed by: SVG Repo Mixer Tools -->
<svg fill="#059669" width="256px" height="256px" viewBox="0 0 369.55 369.55" xmlns="http://www.w3.org/2000/svg" stroke="#059669" stroke-width="0.0036954991">
<g id="SVGRepo_bgCarrier" stroke-width="0"/>
<g id="SVGRepo_tracerCarrier" stroke-linecap="round" stroke-linejoin="round"/>
<g id="SVGRepo_iconCarrier"> <title>engram</title> <g id="Layer_2" data-name="Layer 2"> <g id="Layer_1-2" data-name="Layer 1"> <path d="M189.71791,36.81064h-9.3831L79.286,22.37509,116.81842,0H253.95608l37.53241,22.37509ZM0,158.15841l65.68172,85.1697,40.41952,98.88348L67.84705,319.11472,0,199.29971ZM191.271,49.89183l5.05244-5.77421L300.2593,29.68207l67.84706,117.64968-68.56883,87.335L191.271,172.594ZM303.86819,244.77167l65.68172-85.89148v41.86307L301.70286,319.83649l-38.976,23.81865Zm-123.4239-71.45594L72.17772,235.38857l-68.56883-87.335L72.17772,30.40385,175.39185,44.83939l5.05244,5.77422Zm3.49941,9.29389,107.54479,60.62929-39.69774,101.0488H115.37486l-38.976-101.0488Z"/> </g> </g> </g>
</svg>